# AST/ASF file generated using VICON BodyLanguage
# -----------------------------------------------
:version 1.10
:name VICON
:units
  mass 1.0
  length 0.45
  angle deg
:documentation
   .ast/.asf automatically generated from VICON data using
   VICON BodyBuilder and BodyLanguage model FoxedUp or BRILLIANT.MOD
:root
   order TX TY TZ RX RY RZ
   axis XYZ
   position 0 0 0  
   orientation 0 0 0 
:bonedata
  begin
     id 1 
     name lhipjoint
     direction 0.567725 -0.736092 0.368589 
     length 2.42353 
     axis 0 0 0  XYZ
  end
  begin
     id 2 
     name lfemur
     direction 0.34202 -0.939693 0  
     length 7.24894  
     axis 0 0 20  XYZ
    dof rx ry rz
    limits (-160.0 20.0)
           (-70.0 70.0)
           (-60.0 70.0)
  end
  begin
     id 3 
     name ltibia
     direction 0.34202 -0.939693 0   
     length 7.6997   
     axis 0 0 20   XYZ
    dof rx
    limits (-10.0 170.0)
  end
  begin
     id 4 
     name lfoot
     direction 0.100767 -0.276854 0.955614   
     length 2.37556   
     axis -90 7.62852e-016 20   XYZ
    dof rx rz
    limits (-45.0 90.0)
           (-70.0 20.0)
  end
  begin
     id 5 
     name ltoes
     direction 1.53592e-011 -4.21894e-011 1   
     length 1.18363   
     axis -90 7.62852e-016 20   XYZ
    dof rx
    limits (-90.0 20.0)
  end
  begin
     id 6 
     name rhipjoint
     direction -0.556459 -0.742938 0.372017   
     length 2.4012  
     axis 0 0 0  XYZ 
  end
  begin
     id 7 
     name rfemur
     direction -0.34202 -0.939693 0   
     length 7.5119   
     axis 0 0 -20   XYZ
    dof rx ry rz
    limits (-160.0 20.0)
           (-70.0 70.0)
           (-70.0 60.0)
  end
  begin
     id 8 
     name rtibia
     direction -0.34202 -0.939693 0   
     length 7.50155   
     axis 0 0 -20   XYZ
    dof rx
    limits (-10.0 170.0)
 end
 begin
     id 9 
     name rfoot
     direction -0.118427 -0.325376 0.938139   
     length 2.32487  
     axis -90 -7.62852e-016 -20   XYZ
    dof rx rz
    limits (-45.0 90.0)
           (-20.0 70.0)
  end
  begin
     id 10 
     name rtoes
     direction -1.53525e-011 -4.21868e-011 1   
     length 1.15233   
     axis -90 -7.62852e-016 -20   XYZ
    dof rx
    limits (-90.0 20.0)
  end
  begin
     id 11 
     name lowerback
     direction 0.0287568 0.999577 -0.00434502   
     length 2.15243   
     axis 0 0 0   XYZ
    dof rx ry rz
    limits (-20.0 45.0)
           (-30.0 30.0)
           (-30.0 30.0)
  end
  begin
     id 12 
     name upperback
     direction 0.0294009 0.99956 0.00404628   
     length 2.15427   
     axis 0 0 0   XYZ
    dof rx ry rz
    limits (-20.0 45.0)
           (-30.0 30.0)
           (-30.0 30.0)
  end
  begin
     id 13 
     name thorax
     direction 0.0151014 0.999868 0.0059419   
     length 2.14898   
     axis 0 0 0   XYZ
    dof rx ry rz
    limits (-20.0 45.0)
           (-30.0 30.0)
           (-30.0 30.0)
  end
  begin
     id 14 
     name lowerneck
     direction -0.0249197 0.989906 0.139515   
     length 1.6861   
     axis 0 0 0   XYZ
    dof rx ry rz
    limits (-20.0 45.0)
           (-30.0 30.0)
           (-30.0 30.0)
  end
  begin
     id 15 
     name upperneck
     direction 0.0438463 0.988795 -0.142693   
     length 1.71276   
     axis 0 0 0   XYZ
    dof rx ry rz
    limits (-20.0 45.0)
           (-30.0 30.0)
           (-30.0 30.0)
  end
  begin
     id 16
     name head
     direction 0.0148499 0.997845 -0.0639186  
     length 1.7209  
     axis 0 0 0   XYZ
    dof rx ry rz
    limits (-20.0 45.0)
           (-30.0 30.0)
           (-30.0 30.0)
  end
  begin
     id 17 
     name lclavicle
     direction 0.940298 0.323464 -0.105876  
     length 3.9048  
     axis 0 0 0   XYZ
    dof ry rz
    limits (-20.0 10.0)
           (0.0 20.0)
  end
  begin
     id 18 
     name lhumerus
     direction 1 -4.48954e-011 -4.9675e-028   
     length 4.6851   
     axis 180 -30 -90   XYZ
    dof rx ry rz
    limits (-60.0 90.0)
           (-90.0 90.0)
           (-90.0 90.0)
  end
  begin
     id 19
     name lradius
     direction 1 -4.48992e-011 -1.03359e-026   
     length 3.39626   
     axis 180 -30 -90   XYZ
    dof rx
    limits (-10.0 170.0)
  end
  begin
     id 20
     name lwrist
     direction 1 -4.48906e-011 -1.67336e-026   
     length 1.69813   
     axis 9.90442e-015 90 90   XYZ
    dof ry
    limits (-180.0 0.0)
 end
  begin
     id 21 
     name lhand
     direction 1 -4.49006e-011 -3.34673e-026   
     length 0.486078   
     axis 2.1355e-014 90 90   XYZ
    dof rx rz
    limits (-90.0 90.0)
           (-45.0 45.0)
  end
  begin
     id 22 
     name lfingers
     direction 1 -4.48992e-011 -6.69345e-026   
     length 0.391889   
     axis 4.27099e-014 90 90   XYZ
    dof rx
    limits (0.0 90.0)
  end
  begin
     id 23
     name lthumb
     direction 0.707107 -6.34926e-011 0.707107   
     length 0.562676   
     axis -90 45 2.85299e-015   XYZ
    dof rx rz
    limits (-45.0 45.0)
           (-45.0 45.0)
  end
  begin
     id 24 
     name rclavicle
     direction -0.882459 0.414895 -0.221648   
     length 3.44646  
     axis 0 0 0   XYZ 
    dof ry rz
    limits (-10.0 20.0)
           (-20.0 0.0)
  end
  begin
     id 25 
     name rhumerus
     direction -1 -4.48962e-011 -2.37984e-027  
     length 5.55576   
     axis 180 30 90   XYZ
    dof rx ry rz
    limits (-90.0 60.0)
           (-90.0 90.0)
           (-90.0 90.0)
  end
  begin
     id 26 
     name rradius
     direction -1 -4.48982e-011 -6.86791e-027   
     length 3.32774   
     axis 180 30 90   XYZ
    dof rx
    limits (-10.0 170.0)
  end
  begin
     id 27 
     name rwrist
     direction -1 -4.48961e-011 -1.67336e-026   
     length 1.66387   
     axis 9.90442e-015 -90 -90   XYZ
    dof ry
    limits (-180.0 0.0)
  end
  begin
     id 28
     name rhand
     direction -1 -4.4897e-011 -3.34673e-026   
     length 0.507628   
     axis 2.1355e-014 -90 -90   XYZ
    dof rx rz
    limits (-90.0 90.0)
           (-45.0 45.0)
  end
  begin
     id 29
     name rfingers
     direction -1 -4.48854e-011 -6.69345e-026   
     length 0.409263   
     axis 4.27099e-014 -90 -90   XYZ
    dof rx
    limits (0.0 90.0)
  end
  begin
     id 30
     name rthumb
     direction -0.707107 -6.34913e-011 0.707107   
     length 0.587622   
     axis -90 -45 -2.85299e-015   XYZ
    dof rx rz
    limits (-45.0 45.0)
           (-45.0 45.0)
  end
:hierarchy
  begin
    root lhipjoint rhipjoint lowerback
    lhipjoint lfemur
    lfemur ltibia
    ltibia lfoot
    lfoot ltoes
    rhipjoint rfemur
    rfemur rtibia
    rtibia rfoot
    rfoot rtoes
    lowerback upperback
    upperback thorax
    thorax lowerneck lclavicle rclavicle
    lowerneck upperneck
    upperneck head
    lclavicle lhumerus
    lhumerus lradius
    lradius lwrist
    lwrist lhand lthumb
    lhand lfingers
    rclavicle rhumerus
    rhumerus rradius
    rradius rwrist
    rwrist rhand rthumb
    rhand rfingers
  end

#!OML:ASF E:\motion texture\Top Level 1\Subject 1\Session 1\male.ASF
:FULLY-SPECIFIED
:DEGREES
33
root 29.4017 17.6781 6.12879 -18.126 -83.6522 16.1621
lowerback 7.38808 -4.62378 -5.64456
upperback -1.49057 -6.62576 1.52207
thorax -4.8724 -3.09451 5.46243
lowerneck -19.8595 -3.28545 -6.02909
upperneck 16.1128 -4.55875 8.42523
head 8.63653 -1.6656 3.24985
rclavicle -7.29291e-015 -1.11319e-014
rhumerus -48.6308 -11.4136 -68.5929
rradius 29.319
rwrist 12.9834
rhand -3.60301 -12.1901
rfingers 7.12502
rthumb 22.1351 -40.943
lclavicle -7.29291e-015 -1.11319e-014
lhumerus -6.39905 -10.1311 89.5531
lradius 57.1005
lwrist -7.09213
lhand -14.265 10.3222
lfingers 7.12502
lthumb 11.8736 39.9655
rfemur -80.5102 -10.4476 20.4565
rtibia 75.1054
rfoot 33.0639 -19.049
rtoes 29.7938
lfemur 7.10794 -3.41182 -25.0483
ltibia 19.2999
lfoot -14.5658 -4.4084
ltoes -1.11435
34
root 29.2773 17.659 6.11865 -19.405 -83.5692 17.8034
lowerback 7.15896 -4.58093 -5.75666
upperback -1.59086 -6.57046 1.4769
thorax -4.84912 -3.06326 5.45517
lowerneck -19.8396 -3.32146 -6.05372
upperneck 16.0421 -4.59443 8.41816
head 8.61225 -1.68547 3.2458
rclavicle -1.86733e-014 1.19271e-015
rhumerus -48.3811 -11.171 -69.0982
rradius 29.5637
rwrist 12.7287
rhand -3.60724 -12.0843
rfingers 7.12502
rthumb 22.1311 -40.8377
lclavicle -1.86733e-014 1.19271e-015
lhumerus -6.8815 -10.1492 89.6527
lradius 57.158
lwrist -6.96454
lhand -14.2959 10.4059
lfingers 7.12502
lthumb 11.8438 40.0509
rfemur -79.5782 -10.4543 20.2357
rtibia 73.8996
rfoot 33.3036 -19.0258
rtoes 30.0513
lfemur 7.19875 -3.37765 -25.1639
ltibia 19.2564
lfoot -14.7926 -4.55224
ltoes -1.51885
35
root 29.1509 17.6383 6.10819 -20.444 -83.477 19.2028
lowerback 6.87871 -4.54153 -5.83863
upperback -1.66273 -6.51297 1.42772
thorax -4.77096 -3.03508 5.42008
lowerneck -19.8178 -3.35719 -6.06872
upperneck 15.943 -4.63186 8.41744
head 8.57821 -1.70519 3.24176
rclavicle -3.91109e-014 -4.37326e-015
rhumerus -48.0924 -10.9289 -69.6388
rradius 29.8501
rwrist 12.4249
rhand -3.65204 -12.032
rfingers 7.12502
rthumb 22.0881 -40.7904
lclavicle -3.91109e-014 -4.37326e-015
lhumerus -7.37772 -10.196 89.7374
lradius 57.1933
lwrist -6.79864
lhand -14.3212 10.4905
lfingers 7.12502
lthumb 11.8194 40.137
rfemur -78.5559 -10.4636 19.9936
rtibia 72.7285
rfoot 33.4727 -18.9961
rtoes 30.2605
lfemur 7.30212 -3.3414 -25.2468
ltibia 19.2086
lfoot -15.0355 -4.71542
ltoes -1.92715
36
root 29.0225 17.616 6.09725 -21.1189 -83.3788 20.2372
lowerback 6.58066 -4.50288 -5.88224
upperback -1.7184 -6.45081 1.3861
thorax -4.6694 -3.00709 5.36898
lowerneck -19.8325 -3.39669 -6.07823
upperneck 15.8425 -4.67388 8.41677
head 8.55035 -1.72579 3.2361
rclavicle 1.88348e-014 -4.77083e-015
rhumerus -47.7768 -10.6776 -70.2003
rradius 30.1887
rwrist 12.0574
rhand -3.72172 -12.0326
rfingers 7.12502
rthumb 22.0212 -40.7989
lclavicle 1.88348e-014 -4.77083e-015
lhumerus -7.89453 -10.2693 89.8231
lradius 57.2041
lwrist -6.60749
lhand -14.3562 10.5774
lfingers 7.12502
lthumb 11.7856 40.2258
rfemur -77.4502 -10.4731 19.7465
rtibia 71.5921
rfoot 33.5632 -18.9612
rtoes 30.4685
lfemur 7.41574 -3.31912 -25.2846
ltibia 19.1565
lfoot -15.2939 -4.8814
ltoes -2.35308
37
root 28.8916 17.592 6.08599 -21.4682 -83.2739 20.9357
lowerback 6.25973 -4.46624 -5.88988
upperback -1.75373 -6.38579 1.34981
thorax -4.53691 -2.98049 5.30036
lowerneck -19.8681 -3.43816 -6.0917
upperneck 15.7409 -4.71855 8.42685
head 8.52642 -1.7463 3.23437
rclavicle -3.42904e-014 3.57812e-015
rhumerus -47.4372 -10.4198 -70.7775
rradius 30.5784
rwrist 11.6362
rhand -3.81125 -12.0201
rfingers 7.12502
rthumb 21.9352 -40.7966
lclavicle -3.42904e-014 3.57812e-015
lhumerus -8.43646 -10.3692 89.9086
lradius 57.1901
lwrist -6.40682
lhand -14.4035 10.6622
lfingers 7.12502
lthumb 11.74 40.3132
rfemur -76.2594 -10.4876 19.4948
rtibia 70.5011
rfoot 33.578 -18.9095
rtoes 30.6702
lfemur 7.55676 -3.30583 -25.2804
ltibia 19.0914
lfoot -15.5615 -5.05765
ltoes -2.75695
38
root 28.7579 17.5662 6.07409 -21.5217 -83.1622 21.3317
lowerback 5.99642 -4.4301 -5.87322
upperback -1.83105 -6.32352 1.33231
thorax -4.48106 -2.95138 5.24714
lowerneck -19.8797 -3.47835 -6.12364
upperneck 15.6673 -4.7585 8.43208
head 8.50768 -1.76659 3.23511
rclavicle 7.92095e-014 1.35174e-014
rhumerus -47.1605 -10.0897 -71.3455
rradius 31.0329
rwrist 11.1431
rhand -3.929 -12.028
rfingers 7.12502
rthumb 21.8221 -40.8177
lclavicle 7.92095e-014 1.35174e-014
lhumerus -9.10646 -10.4764 90.033
lradius 57.1669
lwrist -6.20521
lhand -14.4616 10.7567
lfingers 7.12502
lthumb 11.684 40.4109
rfemur -74.9927 -10.5016 19.2419
rtibia 69.4612
rfoot 33.5396 -18.8365
rtoes 30.8808
lfemur 7.7186 -3.30586 -25.2373
ltibia 19.0182
lfoot -15.8369 -5.23554
ltoes -3.15926
39
root 28.6211 17.5387 6.06162 -21.3318 -83.0466 21.4745
lowerback 5.73637 -4.39318 -5.83407
upperback -1.91129 -6.25848 1.32528
thorax -4.43144 -2.92111 5.19314
lowerneck -19.8892 -3.52023 -6.15715
upperneck 15.5948 -4.79941 8.43226
head 8.48893 -1.78796 3.23427
rclavicle 2.04872e-014 -1.78906e-014
rhumerus -46.8922 -9.7332 -71.9153
rradius 31.5368
rwrist 10.5994
rhand -4.08178 -12.0295
rfingers 7.12502
rthumb 21.6754 -40.8361
lclavicle 2.04872e-014 -1.78906e-014
lhumerus -9.85753 -10.6148 90.1717
lradius 57.1411
lwrist -6.00575
lhand -14.5401 10.8749
lfingers 7.12502
lthumb 11.6083 40.5333
rfemur -73.6532 -10.5143 18.9931
rtibia 68.4711
rfoot 33.4722 -18.7317
rtoes 31.1244
lfemur 7.91183 -3.31838 -25.1611
ltibia 18.9248
lfoot -16.1096 -5.41049
ltoes -3.57081
40
root 28.481 17.5097 6.04857 -20.8965 -82.9285 21.3672
lowerback 5.49458 -4.35412 -5.77156
upperback -2.00801 -6.19026 1.33102
thorax -4.41058 -2.88824 5.14254
lowerneck -19.8994 -3.56586 -6.19619
upperneck 15.5361 -4.84427 8.42951
head 8.47536 -1.81169 3.23297
rclavicle 1.28402e-014 -5.96354e-015
rhumerus -46.6571 -9.34136 -72.4837
rradius 32.1
rwrist 10.0118
rhand -4.28782 -12.0406
rfingers 7.12502
rthumb 21.4775 -40.87
lclavicle 1.28402e-014 -5.96354e-015
lhumerus -10.7054 -10.7781 90.3337
lradius 57.1126
lwrist -5.82697
lhand -14.6233 11.0136
lfingers 7.12502
lthumb 11.5281 40.6766
rfemur -72.25 -10.5251 18.7576
rtibia 67.5299
rfoot 33.3941 -18.5965
rtoes 31.4589
lfemur 8.1247 -3.35279 -25.0539
ltibia 18.8256
lfoot -16.3755 -5.57535
ltoes -4.00944
41
root 28.337 17.4795 6.03483 -20.2407 -82.81 21.0283
lowerback 5.24751 -4.31661 -5.68428
upperback -2.10857 -6.12216 1.34526
thorax -4.39204 -2.85598 5.08714
lowerneck -19.8886 -3.61043 -6.23602
upperneck 15.47 -4.88799 8.42634
head 8.4555 -1.83558 3.23182
rclavicle 8.95152e-015 3.97569e-015
rhumerus -46.4309 -8.91878 -73.0636
rradius 32.7058
rwrist 9.38068
rhand -4.56237 -12.0737
rfingers 7.12502
rthumb 21.2138 -40.9329
lclavicle 8.95152e-015 3.97569e-015
lhumerus -11.6419 -10.9539 90.5097
lradius 57.0789
lwrist -5.67819
lhand -14.6996 11.1532
lfingers 7.12502
lthumb 11.4545 40.8202
rfemur -70.7738 -10.5313 18.5444
rtibia 66.6279
rfoot 33.3176 -18.4085
rtoes 31.8784
lfemur 8.36715 -3.4073 -24.9155
ltibia 18.7167
lfoot -16.627 -5.73093
ltoes -4.48688
42
root 28.1889 17.4484 6.02031 -19.3668 -82.6974 20.4603
lowerback 4.94634 -4.28209 -5.56989
upperback -2.17748 -6.05233 1.36391
thorax -4.31175 -2.82689 5.01451
lowerneck -19.8914 -3.65508 -6.26448
upperneck 15.3809 -4.93329 8.42633
head 8.43031 -1.85906 3.22936
rclavicle -3.15074e-014 0
rhumerus -46.1503 -8.48965 -73.6732
rradius 33.3374
rwrist 8.72502
rhand -4.92516 -12.147
rfingers 7.12502
rthumb 20.8653 -41.0449
lclavicle -3.15074e-014 0
lhumerus -12.6014 -11.1353 90.6779
lradius 57.0247
lwrist -5.57441
lhand -14.7628 11.2851
lfingers 7.12502
lthumb 11.3936 40.9555
rfemur -69.2253 -10.5321 18.368
rtibia 65.7536
rfoot 33.2668 -18.1538
rtoes 32.3906
lfemur 8.63113 -3.49637 -24.7498
ltibia 18.6166
lfoot -16.8594 -5.86046
ltoes -5.02152
43
root 28.0367 17.4167 6.00487 -18.3045 -82.5939 19.6869
lowerback 4.61576 -4.24794 -5.4323
upperback -2.22591 -5.97974 1.38775
thorax -4.19507 -2.79886 4.93079
lowerneck -19.9074 -3.70034 -6.2896
upperneck 15.2872 -4.98125 8.43524
head 8.40628 -1.88244 3.22894
rclavicle -1.40702e-014 -2.78299e-015
rhumerus -45.829 -8.04813 -74.3053
rradius 33.9907
rwrist 8.05422
rhand -5.37141 -12.2608
rfingers 7.12502
rthumb 20.4365 -41.2053
lclavicle -1.40702e-014 -2.78299e-015
lhumerus -13.6085 -11.3072 90.8464
lradius 56.9525
lwrist -5.53231
lhand -14.7938 11.3609
lfingers 7.12502
lthumb 11.3636 41.033
rfemur -67.5863 -10.5231 18.2328
rtibia 64.8753
rfoot 33.2425 -17.8135
rtoes 32.891
lfemur 8.9187 -3.61203 -24.5537
ltibia 18.5316
lfoot -17.0584 -5.97398
ltoes -5.61923
44
root 27.8802 17.3848 5.98825 -17.041 -82.5142 18.696
lowerback 4.26677 -4.2127 -5.27121
upperback -2.26656 -5.90369 1.42287
thorax -4.06101 -2.77034 4.84405
lowerneck -19.9144 -3.74092 -6.30788
upperneck 15.1866 -5.02457 8.44297
head 8.37782 -1.90368 3.22759
rclavicle -3.639e-014 5.1684e-015
rhumerus -45.4777 -7.57351 -74.9585
rradius 34.6638
rwrist 7.37838
rhand -5.88594 -12.4122
rfingers 7.12502
rthumb 19.942 -41.409
lclavicle -3.639e-014 5.1684e-015
lhumerus -14.6781 -11.4416 91.0217
lradius 56.849
lwrist -5.55993
lhand -14.8095 11.3768
lfingers 7.12502
lthumb 11.3484 41.0497
rfemur -65.8537 -10.4902 18.158
rtibia 63.9744
rfoot 33.2341 -17.3619
rtoes 33.2865
lfemur 9.21018 -3.76508 -24.3262
ltibia 18.4976
lfoot -17.2225 -6.04767
ltoes -6.30219
45
root 27.7189 17.3533 5.9705 -15.6159 -82.4612 17.5202
lowerback 3.91383 -4.17528 -5.09155
upperback -2.30323 -5.82433 1.46937
thorax -3.92122 -2.74062 4.75873
lowerneck -19.9264 -3.7761 -6.32847
upperneck 15.1045 -5.06166 8.45383
head 8.35612 -1.92155 3.22874
rclavicle 3.91357e-014 -7.55382e-015
rhumerus -45.0994 -7.06931 -75.6225
rradius 35.3553
rwrist 6.73293
rhand -6.42783 -12.5831
rfingers 7.12502
rthumb 19.421 -41.6332
lclavicle 3.91357e-014 -7.55382e-015
lhumerus -15.8176 -11.5258 91.2049
lradius 56.7077
lwrist -5.66675
lhand -14.8022 11.3278
lfingers 7.12502
lthumb 11.3555 41.0003
rfemur -64.0077 -10.43 18.145
rtibia 63.0243
rfoot 33.2148 -16.778
rtoes 33.4942
lfemur 9.50382 -3.94598 -24.0708
ltibia 18.5318
lfoot -17.337 -6.09493
ltoes -7.06203
46
root 27.5525 17.3229 5.95137 -14.0883 -82.44 16.2166
lowerback 3.58671 -4.13181 -4.90603
upperback -2.35919 -5.73962 1.52911
thorax -3.81569 -2.70644 4.68775
lowerneck -19.9215 -3.80467 -6.34606
upperneck 15.051 -5.09131 8.45275
head 8.34008 -1.93713 3.22672
rclavicle -1.5412e-014 4.37326e-015
rhumerus -44.7303 -6.52125 -76.2843
rradius 36.073
rwrist 6.13574
rhand -6.95718 -12.7636
rfingers 7.12502
rthumb 18.912 -41.8643
lclavicle -1.5412e-014 4.37326e-015
lhumerus -17.0662 -11.5474 91.4099
lradius 56.5254
lwrist -5.84931
lhand -14.7895 11.2533
lfingers 7.12502
lthumb 11.3677 40.9252
rfemur -62.0363 -10.3313 18.1929
rtibia 62.0013
rfoot 33.0686 -16.0457
rtoes 33.2611
lfemur 9.78333 -4.13316 -23.7872
ltibia 18.6693
lfoot -17.393 -6.13404
ltoes -7.93142
